HIERARCHY
ROOT Hips
{
 OFFSET 0.000000 0.000000 0.000000
 CHANNELS 6 Xposition Yposition Zposition Yrotation Xrotation Zrotation
 JOINT Chest
 {
  OFFSET 0.000000 9.876134 0.000104
  CHANNELS 3 Yrotation Xrotation Zrotation
  JOINT Chest2
  {
   OFFSET 0.000000 10.876135 -0.000189
   CHANNELS 3 Yrotation Xrotation Zrotation
   JOINT Chest3
   {
    OFFSET 0.000000 9.827064 0.000000
    CHANNELS 3 Yrotation Xrotation Zrotation
    JOINT Chest4
    {
     OFFSET 0.000000 9.827064 0.000000
     CHANNELS 3 Yrotation Xrotation Zrotation
     JOINT Neck
     {
      OFFSET 0.000000 13.837563 0.000000
      CHANNELS 3 Yrotation Xrotation Zrotation
      JOINT Head
      {
       OFFSET 0.000000 9.147058 -0.000450
       CHANNELS 3 Yrotation Xrotation Zrotation
       End Site
       {
        OFFSET 0.000000 17.513052 -0.000235
       }
      }
     }
     JOINT RightCollar
     {
      OFFSET -3.007720 7.720840 0.000000
      CHANNELS 3 Yrotation Xrotation Zrotation
      JOINT RightShoulder
      {
       OFFSET -14.032537 0.000000 0.000000
       CHANNELS 3 Yrotation Xrotation Zrotation
       JOINT RightElbow
       {
        OFFSET -30.066914 0.000000 0.000000
        CHANNELS 3 Yrotation Xrotation Zrotation
        JOINT RightWrist
        {
         OFFSET -24.575722 0.000000 0.000000
         CHANNELS 3 Yrotation Xrotation Zrotation
         JOINT Prop1
         {
          OFFSET -3.508164 -1.002333 -2.004665
          CHANNELS 3 Yrotation Xrotation Zrotation
          End Site
          {
           OFFSET -75.170611 -33.091209 23.052278
          }
         }
         End Site
         {
          OFFSET -18.342688 0.000000 0.000000
         }
        }
       }
      }
     }
     JOINT LeftCollar
     {
      OFFSET 3.007720 7.720840 0.000000
      CHANNELS 3 Yrotation Xrotation Zrotation
      JOINT LeftShoulder
      {
       OFFSET 14.032537 0.000000 0.000000
       CHANNELS 3 Yrotation Xrotation Zrotation
       JOINT LeftElbow
       {
        OFFSET 30.066914 0.000000 0.000000
        CHANNELS 3 Yrotation Xrotation Zrotation
        JOINT LeftWrist
        {
         OFFSET 24.575722 0.000000 0.000000
         CHANNELS 3 Yrotation Xrotation Zrotation
         End Site
         {
          OFFSET 18.342688 0.000000 0.000000
         }
        }
       }
      }
     }
    }
   }
  }
 }
 JOINT RightHip
 {
  OFFSET -8.019673 -0.000511 -0.000052
  CHANNELS 3 Yrotation Xrotation Zrotation
  JOINT RightKnee
  {
   OFFSET 0.000000 -41.754946 0.000049
   CHANNELS 3 Yrotation Xrotation Zrotation
   JOINT RightAnkle
   {
    OFFSET 0.000000 -40.737371 0.000083
    CHANNELS 3 Yrotation Xrotation Zrotation
    JOINT RightToe
    {
     OFFSET 0.000000 -6.498128 14.692921
     CHANNELS 3 Yrotation Xrotation Zrotation
     End Site
     {
      OFFSET 0.000000 -1.503206 6.410308
     }
    }
   }
  }
 }
 JOINT LeftHip
 {
  OFFSET 8.019673 -0.000511 -0.000052
  CHANNELS 3 Yrotation Xrotation Zrotation
  JOINT LeftKnee
  {
   OFFSET 0.000000 -41.754946 0.000049
   CHANNELS 3 Yrotation Xrotation Zrotation
   JOINT LeftAnkle
   {
    OFFSET 0.000000 -40.737371 0.000083
    CHANNELS 3 Yrotation Xrotation Zrotation
    JOINT LeftToe
    {
     OFFSET 0.000000 -6.498128 14.692921
     CHANNELS 3 Yrotation Xrotation Zrotation
     End Site
     {
      OFFSET 0.000000 -1.503206 6.410308
     }
    }
   }
  }
 }
}
MOTION
Frames: 10
Frame Time: 0.016667
0.979535 77.609603 6.378232 -162.111018 -2.505429 4.763107 -4.746935 11.524189 -2.508212 -2.093133 5.081640 -0.930382 -2.093133 5.081640 -0.930382 -1.561069 3.814477 -0.679893 -10.178655 10.059239 6.425959 -22.504476 -15.374903 16.905201 16.939391 2.717381 2.989511 -27.821229 -64.913018 77.057722 20.525349 -10.315367 2.119503 -13.448539 7.341640 -13.888653 1.313567 19.914736 -79.185169 18.223059 -6.737697 -13.167715 6.459574 4.238061 -66.520716 -31.020055 15.692535 -0.660390 -3.055551 -4.001261 7.473025 -10.098661 -51.715385 -14.982437 -27.345374 48.468279 -23.253918 23.984568 -0.058576 -1.914106 0.004680 -0.195048 0.805321 -10.291875 -18.327200 17.329685 4.099518 61.188876 -21.746231 19.586705 -30.893120 -2.022461 -0.001252 0.068873 -0.485263
1.054004 77.567026 6.120422 -161.908377 -2.461367 4.690967 -4.877225 11.441391 -2.416595 -2.128501 5.051879 -0.905628 -2.128501 5.051879 -0.905628 -1.587841 3.792125 -0.661155 -10.171562 10.063469 6.382450 -22.471889 -15.380249 16.818544 16.994324 2.631230 2.997036 -27.803296 -64.911575 76.975481 20.486913 -10.100315 2.074416 -13.410122 7.307003 -13.876699 1.255270 19.884014 -79.199083 18.265327 -6.698271 -13.219882 6.426267 4.160459 -66.499426 -30.732252 15.696323 -0.772019 -3.083077 -3.988213 7.407295 -10.242498 -51.785483 -14.862801 -27.566273 48.792362 -23.499336 23.752187 -0.239147 -2.218429 0.020711 -0.242253 0.831481 -10.526503 -18.321636 17.497284 4.025346 61.354380 -21.713232 19.488565 -30.876942 -2.045940 -0.026872 -0.019098 -0.516151
1.116244 77.591484 5.848722 -161.736063 -2.525392 4.612278 -5.006003 11.391015 -2.353797 -2.169115 5.046326 -0.878989 -2.169115 5.046326 -0.878989 -1.618512 3.787927 -0.640873 -10.149737 10.085426 6.342291 -22.407894 -15.356102 16.727346 17.064353 2.629675 3.024676 -27.683896 -64.920299 76.895368 20.464274 -10.061280 1.997382 -13.356823 7.327762 -13.850990 1.207795 19.957811 -79.196736 18.303285 -6.635956 -13.235335 6.362741 4.173607 -66.511495 -30.487745 15.653305 -0.841342 -3.114843 -4.002366 7.276573 -10.464810 -51.706383 -14.716322 -27.665205 49.042248 -23.675300 23.842776 -0.369317 -2.414491 -0.012262 -0.318307 0.789480 -11.042222 -18.020194 17.659242 4.390843 61.356495 -21.535713 19.506515 -30.783205 -2.134100 -0.023030 -0.115452 -0.515113
1.147622 77.674835 5.562067 -161.642173 -2.652210 4.534067 -5.093163 11.380806 -2.311727 -2.198893 5.046296 -0.857564 -2.198893 5.046296 -0.857564 -1.641009 3.787871 -0.624568 -10.128386 10.119565 6.311772 -22.345566 -15.307150 16.651303 17.109838 2.669258 3.073857 -27.542553 -64.876607 76.868662 20.484993 -10.169535 1.929151 -13.308894 7.479324 -13.851949 1.142642 20.026631 -79.209042 18.298863 -6.518111 -13.214992 6.314722 4.178313 -66.649275 -30.250647 15.604045 -0.829353 -3.129015 -3.988582 7.139941 -10.686913 -51.482498 -14.572216 -27.697497 49.204246 -23.782270 23.752475 -0.504502 -2.528470 -0.030021 -0.372790 0.705726 -11.516893 -17.547169 17.757201 4.887511 61.205925 -21.259594 19.614897 -30.687138 -2.263543 -0.027147 -0.158975 -0.502403
1.168770 77.785836 5.303881 -161.588838 -2.594641 4.462394 -5.152087 11.281061 -2.256303 -2.213974 5.014111 -0.843508 -2.213974 5.014111 -0.843508 -1.652486 3.763703 -0.614030 -10.115524 10.154192 6.289679 -22.302790 -15.253021 16.594610 17.108317 2.795065 3.108333 -27.611905 -64.793752 77.141539 20.568472 -10.010251 1.852636 -13.274469 7.455680 -13.815021 1.122319 20.013312 -79.212984 18.242034 -6.369718 -13.165199 6.257661 4.213909 -66.798223 -30.056961 15.562143 -0.794870 -3.125100 -3.964949 7.003618 -10.939753 -51.378576 -14.379093 -27.703128 49.280316 -23.833845 23.958926 -0.676793 -2.591222 -0.038344 -0.378453 0.596869 -11.666157 -17.309874 17.800226 5.114430 60.975397 -20.989326 19.476542 -30.607965 -2.256249 -0.035134 -0.186159 -0.473920
1.191475 77.901853 5.055412 -161.578032 -2.423797 4.424397 -5.161216 11.134932 -2.195397 -2.225196 4.954427 -0.836556 -2.225196 4.954427 -0.836556 -1.661063 3.718930 -0.608956 -10.111464 10.193589 6.264210 -22.274159 -15.188903 16.533806 17.076535 3.060377 3.112610 -27.966286 -64.694337 77.759671 20.748201 -9.684144 1.734980 -13.259647 7.338218 -13.714588 1.138492 19.969439 -79.160465 18.161228 -6.222542 -13.107522 6.171895 4.301233 -66.888938 -29.910624 15.563686 -0.780779 -3.113672 -3.953827 6.861204 -11.156650 -51.358087 -14.199892 -27.694195 49.254575 -23.856250 23.869342 -0.781264 -2.593658 -0.044875 -0.379698 0.484087 -11.801774 -17.131191 17.828376 5.363642 60.671090 -20.763998 19.552677 -30.525496 -2.392981 -0.005364 -0.188879 -0.391283
1.198213 78.004730 4.826204 -161.581329 -2.245379 4.380280 -5.155768 10.987600 -2.109845 -2.233790 4.886173 -0.831498 -2.233790 4.886173 -0.831498 -1.667667 3.667732 -0.605357 -10.110047 10.237407 6.219773 -22.241642 -15.120916 16.436921 17.060068 3.404702 3.128043 -28.104607 -64.569915 78.218874 21.007822 -9.552136 1.519037 -13.238623 7.299184 -13.686020 1.148915 19.961197 -79.076672 18.081949 -6.054315 -13.037046 6.065321 4.393937 -66.980582 -29.802540 15.642546 -0.758226 -3.107600 -3.942181 6.741042 -11.426990 -51.312192 -13.962963 -27.558701 49.174417 -23.778123 23.747525 -0.848119 -2.564967 -0.037639 -0.379846 0.372759 -11.845625 -16.995232 17.870158 5.500117 60.410057 -20.596086 19.573392 -30.434938 -2.585513 0.007824 -0.248115 -0.258448
1.245645 78.058343 4.669970 -161.525097 -1.923452 4.255711 -5.204772 10.724581 -1.942289 -2.239866 4.803033 -0.816775 -2.239866 4.803033 -0.816775 -1.672486 3.605330 -0.594592 -10.099883 10.279811 6.147513 -22.181494 -15.064634 16.284181 17.076344 3.875643 3.150019 -27.899150 -64.544798 78.457793 21.336230 -9.653729 1.127243 -13.276450 7.329403 -13.765314 1.149657 19.995637 -79.083341 18.060554 -5.896435 -12.947822 5.978396 4.519527 -67.125031 -29.761031 15.904122 -0.687703 -3.088409 -3.947724 6.625639 -11.995904 -51.396446 -13.460805 -27.217561 49.086810 -23.578864 23.726702 -0.939527 -2.520132 -0.040028 -0.332586 0.264025 -11.788948 -17.249824 18.056235 5.433564 60.420218 -20.427231 19.470111 -30.329189 -2.840272 0.026896 -0.376388 -0.097701
1.260708 78.074316 4.545852 -161.589238 -1.533601 4.162685 -5.187539 10.492437 -1.836884 -2.237629 4.689914 -0.780977 -2.237629 4.689914 -0.780977 -1.671282 3.520355 -0.568209 -10.077012 10.305831 6.057668 -22.094271 -15.045518 16.097454 17.148504 4.379640 3.208071 -27.427387 -64.634091 78.487042 21.681829 -9.803497 0.589226 -13.373351 7.378980 -13.935276 1.169431 20.023275 -79.156774 18.109289 -5.791390 -12.840772 5.927962 4.679069 -67.313570 -29.786558 16.313356 -0.575709 -3.046406 -3.944076 6.438364 -12.423704 -51.562457 -12.973137 -26.789323 49.036434 -23.326907 23.667819 -1.063325 -2.471988 -0.028211 -0.254819 0.176376 -11.969264 -17.411832 18.230041 5.757439 60.365557 -20.189190 19.525038 -30.404123 -3.112135 0.014703 -0.338968 0.001433
1.242158 78.048725 4.473589 -161.697482 -0.930378 4.080247 -5.150035 10.197551 -1.759030 -2.228583 4.533276 -0.724460 -2.228583 4.533276 -0.724460 -1.665183 3.402656 -0.526508 -10.048013 10.306737 5.977426 -22.005815 -15.070959 15.933229 17.191635 4.659773 3.275127 -26.680888 -64.617780 78.278975 22.038021 -9.843287 -0.000382 -13.535081 7.379069 -14.086646 1.203055 20.026362 -79.305182 18.170835 -5.715074 -12.729702 5.985392 4.809010 -67.541622 -29.906117 16.818425 -0.450267 -2.970114 -3.906213 6.189944 -12.716171 -52.005094 -12.525495 -26.542910 49.061372 -23.199481 23.650640 -1.212928 -2.428093 -0.021432 -0.175320 0.111634 -12.421507 -17.734169 18.472823 6.158899 60.313691 -20.137591 19.869842 -30.576912 -3.397107 -0.017622 -0.217955 0.051932
